<mxfile host="app.diagrams.net" agent="Mozilla/5.0 (Windows NT 10.0; Win64; x64) AppleWebKit/537.36 (KHTML, like Gecko) Chrome/134.0.0.0 Safari/537.36" version="26.1.1">
  <diagram id="klasvQ19UsGcthBrKmfp" name="TO BE">
    <mxGraphModel dx="1434" dy="746" grid="1" gridSize="10" guides="1" tooltips="1" connect="1" arrows="1" fold="1" page="1" pageScale="1" pageWidth="2339" pageHeight="3300" math="0" shadow="0">
      <root>
        <mxCell id="0" />
        <mxCell id="1" parent="0" />
        <mxCell id="poTXrmnGMnA__IKxypOU-3" value="Shop" style="rounded=0;whiteSpace=wrap;html=1;" vertex="1" parent="1">
          <mxGeometry x="320" y="130" width="120" height="60" as="geometry" />
        </mxCell>
        <mxCell id="ExrQfq8QPusbc2TG1vKU-28" value="" style="edgeStyle=orthogonalEdgeStyle;rounded=0;orthogonalLoop=1;jettySize=auto;html=1;" edge="1" parent="1" source="poTXrmnGMnA__IKxypOU-5" target="ExrQfq8QPusbc2TG1vKU-27">
          <mxGeometry relative="1" as="geometry" />
        </mxCell>
        <mxCell id="poTXrmnGMnA__IKxypOU-5" value="CRM" style="rounded=0;whiteSpace=wrap;html=1;" vertex="1" parent="1">
          <mxGeometry x="520" y="130" width="120" height="60" as="geometry" />
        </mxCell>
        <mxCell id="ExrQfq8QPusbc2TG1vKU-26" value="" style="edgeStyle=orthogonalEdgeStyle;rounded=0;orthogonalLoop=1;jettySize=auto;html=1;" edge="1" parent="1" source="poTXrmnGMnA__IKxypOU-7" target="ExrQfq8QPusbc2TG1vKU-5">
          <mxGeometry relative="1" as="geometry" />
        </mxCell>
        <mxCell id="poTXrmnGMnA__IKxypOU-7" value="MES API (bff)" style="rounded=0;whiteSpace=wrap;html=1;" vertex="1" parent="1">
          <mxGeometry x="720" y="340" width="120" height="60" as="geometry" />
        </mxCell>
        <mxCell id="poTXrmnGMnA__IKxypOU-9" value="MES" style="rounded=0;whiteSpace=wrap;html=1;" vertex="1" parent="1">
          <mxGeometry x="720" y="130" width="120" height="60" as="geometry" />
        </mxCell>
        <mxCell id="poTXrmnGMnA__IKxypOU-10" value="" style="edgeStyle=orthogonalEdgeStyle;rounded=0;orthogonalLoop=1;jettySize=auto;html=1;entryX=1;entryY=0.5;entryDx=0;entryDy=0;entryPerimeter=0;" edge="1" parent="1" source="ExrQfq8QPusbc2TG1vKU-2" target="poTXrmnGMnA__IKxypOU-14">
          <mxGeometry relative="1" as="geometry">
            <mxPoint x="380" y="460" as="targetPoint" />
            <Array as="points">
              <mxPoint x="290" y="470" />
              <mxPoint x="290" y="520" />
            </Array>
          </mxGeometry>
        </mxCell>
        <mxCell id="poTXrmnGMnA__IKxypOU-49" value="" style="edgeStyle=orthogonalEdgeStyle;rounded=0;orthogonalLoop=1;jettySize=auto;html=1;exitX=0;exitY=0.5;exitDx=0;exitDy=0;" edge="1" parent="1" source="ExrQfq8QPusbc2TG1vKU-2" target="ExrQfq8QPusbc2TG1vKU-9">
          <mxGeometry relative="1" as="geometry">
            <mxPoint x="361.03999999999996" y="460" as="sourcePoint" />
            <mxPoint x="290" y="530" as="targetPoint" />
            <Array as="points">
              <mxPoint x="290" y="470" />
            </Array>
          </mxGeometry>
        </mxCell>
        <mxCell id="poTXrmnGMnA__IKxypOU-11" value="Shop API (bff)" style="rounded=0;whiteSpace=wrap;html=1;" vertex="1" parent="1">
          <mxGeometry x="320" y="340" width="120" height="60" as="geometry" />
        </mxCell>
        <mxCell id="poTXrmnGMnA__IKxypOU-12" value="" style="edgeStyle=orthogonalEdgeStyle;rounded=0;orthogonalLoop=1;jettySize=auto;html=1;entryX=0.07;entryY=0.4;entryDx=0;entryDy=0;entryPerimeter=0;exitX=0.5;exitY=1;exitDx=0;exitDy=0;" edge="1" parent="1" source="ExrQfq8QPusbc2TG1vKU-4" target="poTXrmnGMnA__IKxypOU-16">
          <mxGeometry relative="1" as="geometry">
            <Array as="points">
              <mxPoint x="580" y="592" />
            </Array>
            <mxPoint x="580" y="390" as="sourcePoint" />
          </mxGeometry>
        </mxCell>
        <mxCell id="ExrQfq8QPusbc2TG1vKU-6" value="" style="edgeStyle=orthogonalEdgeStyle;rounded=0;orthogonalLoop=1;jettySize=auto;html=1;" edge="1" parent="1" source="poTXrmnGMnA__IKxypOU-13" target="ExrQfq8QPusbc2TG1vKU-4">
          <mxGeometry relative="1" as="geometry" />
        </mxCell>
        <mxCell id="poTXrmnGMnA__IKxypOU-13" value="CRM API (bff)" style="rounded=0;whiteSpace=wrap;html=1;" vertex="1" parent="1">
          <mxGeometry x="520" y="340" width="120" height="60" as="geometry" />
        </mxCell>
        <mxCell id="poTXrmnGMnA__IKxypOU-14" value="Shop BD" style="shape=cylinder3;whiteSpace=wrap;html=1;boundedLbl=1;backgroundOutline=1;size=15;" vertex="1" parent="1">
          <mxGeometry x="170" y="480" width="60" height="80" as="geometry" />
        </mxCell>
        <mxCell id="poTXrmnGMnA__IKxypOU-15" value="MES BD" style="shape=cylinder3;whiteSpace=wrap;html=1;boundedLbl=1;backgroundOutline=1;size=15;" vertex="1" parent="1">
          <mxGeometry x="930" y="470" width="60" height="80" as="geometry" />
        </mxCell>
        <mxCell id="poTXrmnGMnA__IKxypOU-16" value="s3" style="ellipse;shape=cloud;whiteSpace=wrap;html=1;" vertex="1" parent="1">
          <mxGeometry x="880" y="560" width="120" height="80" as="geometry" />
        </mxCell>
        <mxCell id="poTXrmnGMnA__IKxypOU-17" value="" style="shape=cylinder3;whiteSpace=wrap;html=1;boundedLbl=1;backgroundOutline=1;size=15;rotation=90;direction=east;" vertex="1" parent="1">
          <mxGeometry x="910" y="641.02" width="60" height="80" as="geometry" />
        </mxCell>
        <mxCell id="poTXrmnGMnA__IKxypOU-20" value="" style="edgeStyle=orthogonalEdgeStyle;rounded=0;orthogonalLoop=1;jettySize=auto;html=1;entryX=0.07;entryY=0.4;entryDx=0;entryDy=0;entryPerimeter=0;exitX=0.75;exitY=1;exitDx=0;exitDy=0;" edge="1" parent="1" source="ExrQfq8QPusbc2TG1vKU-5" target="poTXrmnGMnA__IKxypOU-16">
          <mxGeometry relative="1" as="geometry">
            <mxPoint x="815" y="577" as="sourcePoint" />
            <mxPoint x="1050" y="653" as="targetPoint" />
            <Array as="points">
              <mxPoint x="810" y="592" />
            </Array>
          </mxGeometry>
        </mxCell>
        <mxCell id="poTXrmnGMnA__IKxypOU-21" value="" style="edgeStyle=orthogonalEdgeStyle;rounded=0;orthogonalLoop=1;jettySize=auto;html=1;entryX=0.07;entryY=0.4;entryDx=0;entryDy=0;entryPerimeter=0;exitX=0.839;exitY=1;exitDx=0;exitDy=0;exitPerimeter=0;" edge="1" parent="1" source="ExrQfq8QPusbc2TG1vKU-2" target="poTXrmnGMnA__IKxypOU-16">
          <mxGeometry relative="1" as="geometry">
            <mxPoint x="440" y="500" as="sourcePoint" />
            <mxPoint x="1178.4" y="607" as="targetPoint" />
            <Array as="points">
              <mxPoint x="420" y="500" />
              <mxPoint x="420" y="592" />
            </Array>
          </mxGeometry>
        </mxCell>
        <mxCell id="poTXrmnGMnA__IKxypOU-22" value="" style="edgeStyle=orthogonalEdgeStyle;rounded=0;orthogonalLoop=1;jettySize=auto;html=1;" edge="1" parent="1" source="poTXrmnGMnA__IKxypOU-23" target="poTXrmnGMnA__IKxypOU-3">
          <mxGeometry relative="1" as="geometry" />
        </mxCell>
        <mxCell id="poTXrmnGMnA__IKxypOU-23" value="customer" style="shape=umlActor;verticalLabelPosition=bottom;verticalAlign=top;html=1;outlineConnect=0;" vertex="1" parent="1">
          <mxGeometry x="365" width="30" height="60" as="geometry" />
        </mxCell>
        <mxCell id="poTXrmnGMnA__IKxypOU-24" value="" style="edgeStyle=orthogonalEdgeStyle;rounded=0;orthogonalLoop=1;jettySize=auto;html=1;" edge="1" parent="1" source="poTXrmnGMnA__IKxypOU-25" target="poTXrmnGMnA__IKxypOU-5">
          <mxGeometry relative="1" as="geometry" />
        </mxCell>
        <mxCell id="poTXrmnGMnA__IKxypOU-25" value="seller" style="shape=umlActor;verticalLabelPosition=bottom;verticalAlign=top;html=1;outlineConnect=0;" vertex="1" parent="1">
          <mxGeometry x="565" width="30" height="60" as="geometry" />
        </mxCell>
        <mxCell id="poTXrmnGMnA__IKxypOU-26" value="" style="edgeStyle=orthogonalEdgeStyle;rounded=0;orthogonalLoop=1;jettySize=auto;html=1;" edge="1" parent="1" source="poTXrmnGMnA__IKxypOU-27" target="poTXrmnGMnA__IKxypOU-9">
          <mxGeometry relative="1" as="geometry" />
        </mxCell>
        <mxCell id="poTXrmnGMnA__IKxypOU-27" value="operator" style="shape=umlActor;verticalLabelPosition=bottom;verticalAlign=top;html=1;outlineConnect=0;" vertex="1" parent="1">
          <mxGeometry x="765" width="30" height="60" as="geometry" />
        </mxCell>
        <mxCell id="poTXrmnGMnA__IKxypOU-28" value="api user" style="shape=umlActor;verticalLabelPosition=bottom;verticalAlign=top;html=1;outlineConnect=0;" vertex="1" parent="1">
          <mxGeometry x="950" width="30" height="60" as="geometry" />
        </mxCell>
        <mxCell id="poTXrmnGMnA__IKxypOU-29" value="" style="endArrow=classic;html=1;rounded=0;exitX=0.5;exitY=0.5;exitDx=0;exitDy=0;exitPerimeter=0;entryX=1;entryY=0.5;entryDx=0;entryDy=0;edgeStyle=orthogonalEdgeStyle;" edge="1" parent="1" source="poTXrmnGMnA__IKxypOU-28" target="ExrQfq8QPusbc2TG1vKU-27">
          <mxGeometry width="50" height="50" relative="1" as="geometry">
            <mxPoint x="500" y="130" as="sourcePoint" />
            <mxPoint x="550" y="80" as="targetPoint" />
            <Array as="points">
              <mxPoint x="965" y="270" />
            </Array>
          </mxGeometry>
        </mxCell>
        <mxCell id="ExrQfq8QPusbc2TG1vKU-3" value="" style="edgeStyle=orthogonalEdgeStyle;rounded=0;orthogonalLoop=1;jettySize=auto;html=1;entryX=0.5;entryY=0;entryDx=0;entryDy=0;entryPerimeter=0;" edge="1" parent="1" source="poTXrmnGMnA__IKxypOU-11" target="ExrQfq8QPusbc2TG1vKU-2">
          <mxGeometry relative="1" as="geometry">
            <mxPoint x="380" y="639" as="targetPoint" />
            <mxPoint x="380" y="380" as="sourcePoint" />
          </mxGeometry>
        </mxCell>
        <mxCell id="ExrQfq8QPusbc2TG1vKU-2" value="Shop API" style="rounded=0;whiteSpace=wrap;html=1;" vertex="1" parent="1">
          <mxGeometry x="320" y="440" width="120" height="60" as="geometry" />
        </mxCell>
        <mxCell id="ExrQfq8QPusbc2TG1vKU-11" value="" style="edgeStyle=orthogonalEdgeStyle;rounded=0;orthogonalLoop=1;jettySize=auto;html=1;" edge="1" parent="1" source="ExrQfq8QPusbc2TG1vKU-4" target="ExrQfq8QPusbc2TG1vKU-2">
          <mxGeometry relative="1" as="geometry" />
        </mxCell>
        <mxCell id="ExrQfq8QPusbc2TG1vKU-4" value="CRM API" style="rounded=0;whiteSpace=wrap;html=1;" vertex="1" parent="1">
          <mxGeometry x="520" y="440" width="120" height="60" as="geometry" />
        </mxCell>
        <mxCell id="ExrQfq8QPusbc2TG1vKU-18" value="" style="edgeStyle=orthogonalEdgeStyle;rounded=0;orthogonalLoop=1;jettySize=auto;html=1;entryX=0;entryY=0.5;entryDx=0;entryDy=0;entryPerimeter=0;" edge="1" parent="1" source="ExrQfq8QPusbc2TG1vKU-5" target="ExrQfq8QPusbc2TG1vKU-8">
          <mxGeometry relative="1" as="geometry">
            <mxPoint x="890" y="420" as="targetPoint" />
            <Array as="points">
              <mxPoint x="850" y="470" />
              <mxPoint x="850" y="420" />
            </Array>
          </mxGeometry>
        </mxCell>
        <mxCell id="ExrQfq8QPusbc2TG1vKU-5" value="MES API" style="rounded=0;whiteSpace=wrap;html=1;" vertex="1" parent="1">
          <mxGeometry x="720" y="440" width="120" height="60" as="geometry" />
        </mxCell>
        <mxCell id="ExrQfq8QPusbc2TG1vKU-8" value="MES Cache" style="rhombus;whiteSpace=wrap;html=1;" vertex="1" parent="1">
          <mxGeometry x="920" y="380" width="80" height="80" as="geometry" />
        </mxCell>
        <mxCell id="ExrQfq8QPusbc2TG1vKU-9" value="Shop Cache" style="rhombus;whiteSpace=wrap;html=1;" vertex="1" parent="1">
          <mxGeometry x="160" y="380" width="80" height="80" as="geometry" />
        </mxCell>
        <mxCell id="ExrQfq8QPusbc2TG1vKU-15" value="" style="endArrow=classic;html=1;rounded=0;exitX=0.183;exitY=1;exitDx=0;exitDy=0;exitPerimeter=0;entryX=0.5;entryY=1;entryDx=0;entryDy=0;entryPerimeter=0;edgeStyle=orthogonalEdgeStyle;startArrow=classic;startFill=1;" edge="1" parent="1" source="ExrQfq8QPusbc2TG1vKU-2" target="poTXrmnGMnA__IKxypOU-17">
          <mxGeometry width="50" height="50" relative="1" as="geometry">
            <mxPoint x="780" y="550" as="sourcePoint" />
            <mxPoint x="830" y="500" as="targetPoint" />
          </mxGeometry>
        </mxCell>
        <mxCell id="ExrQfq8QPusbc2TG1vKU-16" value="" style="endArrow=classic;html=1;rounded=0;exitX=0.25;exitY=1;exitDx=0;exitDy=0;entryX=0.5;entryY=1;entryDx=0;entryDy=0;entryPerimeter=0;edgeStyle=orthogonalEdgeStyle;startArrow=classic;startFill=1;" edge="1" parent="1" source="ExrQfq8QPusbc2TG1vKU-4" target="poTXrmnGMnA__IKxypOU-17">
          <mxGeometry width="50" height="50" relative="1" as="geometry">
            <mxPoint x="780" y="550" as="sourcePoint" />
            <mxPoint x="830" y="500" as="targetPoint" />
          </mxGeometry>
        </mxCell>
        <mxCell id="ExrQfq8QPusbc2TG1vKU-17" value="" style="endArrow=classic;html=1;rounded=0;exitX=0.25;exitY=1;exitDx=0;exitDy=0;entryX=0.5;entryY=1;entryDx=0;entryDy=0;entryPerimeter=0;edgeStyle=orthogonalEdgeStyle;startArrow=classic;startFill=1;" edge="1" parent="1" source="ExrQfq8QPusbc2TG1vKU-5" target="poTXrmnGMnA__IKxypOU-17">
          <mxGeometry width="50" height="50" relative="1" as="geometry">
            <mxPoint x="580" y="550" as="sourcePoint" />
            <mxPoint x="630" y="500" as="targetPoint" />
          </mxGeometry>
        </mxCell>
        <mxCell id="ExrQfq8QPusbc2TG1vKU-19" value="" style="endArrow=classic;html=1;rounded=0;entryX=0;entryY=0.5;entryDx=0;entryDy=0;entryPerimeter=0;exitX=1;exitY=0.5;exitDx=0;exitDy=0;edgeStyle=orthogonalEdgeStyle;" edge="1" parent="1" source="ExrQfq8QPusbc2TG1vKU-5" target="poTXrmnGMnA__IKxypOU-15">
          <mxGeometry width="50" height="50" relative="1" as="geometry">
            <mxPoint x="580" y="550" as="sourcePoint" />
            <mxPoint x="630" y="500" as="targetPoint" />
            <Array as="points">
              <mxPoint x="850" y="470" />
              <mxPoint x="850" y="510" />
            </Array>
          </mxGeometry>
        </mxCell>
        <mxCell id="poTXrmnGMnA__IKxypOU-31" value="" style="rounded=1;whiteSpace=wrap;html=1;container=0;" vertex="1" parent="1">
          <mxGeometry x="320" y="920" width="840" height="320" as="geometry" />
        </mxCell>
        <mxCell id="poTXrmnGMnA__IKxypOU-32" value="build" style="strokeWidth=2;html=1;shape=mxgraph.flowchart.start_2;whiteSpace=wrap;container=0;" vertex="1" parent="1">
          <mxGeometry x="360" y="960" width="40" height="40" as="geometry" />
        </mxCell>
        <mxCell id="poTXrmnGMnA__IKxypOU-33" value="" style="edgeStyle=orthogonalEdgeStyle;rounded=0;orthogonalLoop=1;jettySize=auto;html=1;" edge="1" parent="1" source="poTXrmnGMnA__IKxypOU-34" target="poTXrmnGMnA__IKxypOU-36">
          <mxGeometry relative="1" as="geometry" />
        </mxCell>
        <mxCell id="poTXrmnGMnA__IKxypOU-34" value="deploy dev" style="strokeWidth=2;html=1;shape=mxgraph.flowchart.start_2;whiteSpace=wrap;container=0;" vertex="1" parent="1">
          <mxGeometry x="480" y="960" width="40" height="40" as="geometry" />
        </mxCell>
        <mxCell id="poTXrmnGMnA__IKxypOU-35" value="" style="edgeStyle=orthogonalEdgeStyle;rounded=0;orthogonalLoop=1;jettySize=auto;html=1;" edge="1" parent="1" source="poTXrmnGMnA__IKxypOU-36" target="poTXrmnGMnA__IKxypOU-38">
          <mxGeometry relative="1" as="geometry" />
        </mxCell>
        <mxCell id="poTXrmnGMnA__IKxypOU-36" value="deploy&amp;nbsp;&lt;div&gt;release&lt;/div&gt;" style="strokeWidth=2;html=1;shape=mxgraph.flowchart.start_2;whiteSpace=wrap;container=0;" vertex="1" parent="1">
          <mxGeometry x="600" y="960" width="40" height="40" as="geometry" />
        </mxCell>
        <mxCell id="poTXrmnGMnA__IKxypOU-37" value="" style="edgeStyle=orthogonalEdgeStyle;rounded=0;orthogonalLoop=1;jettySize=auto;html=1;" edge="1" parent="1" source="poTXrmnGMnA__IKxypOU-38" target="poTXrmnGMnA__IKxypOU-40">
          <mxGeometry relative="1" as="geometry" />
        </mxCell>
        <mxCell id="poTXrmnGMnA__IKxypOU-39" value="unit testing" style="strokeWidth=2;html=1;shape=mxgraph.flowchart.start_2;whiteSpace=wrap;container=0;" vertex="1" parent="1">
          <mxGeometry x="360" y="1040" width="40" height="40" as="geometry" />
        </mxCell>
        <mxCell id="ExrQfq8QPusbc2TG1vKU-24" value="" style="edgeStyle=orthogonalEdgeStyle;rounded=0;orthogonalLoop=1;jettySize=auto;html=1;" edge="1" parent="1" source="poTXrmnGMnA__IKxypOU-40" target="ExrQfq8QPusbc2TG1vKU-23">
          <mxGeometry relative="1" as="geometry" />
        </mxCell>
        <mxCell id="poTXrmnGMnA__IKxypOU-40" value="deploy&amp;nbsp;&lt;div&gt;prod&lt;/div&gt;" style="strokeWidth=2;html=1;shape=mxgraph.flowchart.start_2;whiteSpace=wrap;container=0;" vertex="1" parent="1">
          <mxGeometry x="840" y="960" width="40" height="40" as="geometry" />
        </mxCell>
        <mxCell id="poTXrmnGMnA__IKxypOU-41" value="auto" style="text;html=1;align=center;verticalAlign=middle;whiteSpace=wrap;rounded=0;container=0;" vertex="1" parent="1">
          <mxGeometry x="350" y="930" width="60" height="30" as="geometry" />
        </mxCell>
        <mxCell id="poTXrmnGMnA__IKxypOU-42" value="auto" style="text;html=1;align=center;verticalAlign=middle;whiteSpace=wrap;rounded=0;container=0;" vertex="1" parent="1">
          <mxGeometry x="470" y="930" width="60" height="30" as="geometry" />
        </mxCell>
        <mxCell id="poTXrmnGMnA__IKxypOU-43" value="auto" style="text;html=1;align=center;verticalAlign=middle;whiteSpace=wrap;rounded=0;container=0;" vertex="1" parent="1">
          <mxGeometry x="590" y="930" width="60" height="30" as="geometry" />
        </mxCell>
        <mxCell id="poTXrmnGMnA__IKxypOU-45" value="manual" style="text;html=1;align=center;verticalAlign=middle;whiteSpace=wrap;rounded=0;container=0;" vertex="1" parent="1">
          <mxGeometry x="830" y="930" width="60" height="30" as="geometry" />
        </mxCell>
        <mxCell id="poTXrmnGMnA__IKxypOU-46" value="" style="rounded=1;whiteSpace=wrap;html=1;dashed=1;dashPattern=8 8;fillColor=none;container=0;" vertex="1" parent="1">
          <mxGeometry x="340" y="920" width="80" height="200" as="geometry" />
        </mxCell>
        <mxCell id="poTXrmnGMnA__IKxypOU-47" value="" style="endArrow=classic;html=1;rounded=0;exitX=1;exitY=0.25;exitDx=0;exitDy=0;edgeStyle=orthogonalEdgeStyle;" edge="1" parent="1" source="poTXrmnGMnA__IKxypOU-46" target="poTXrmnGMnA__IKxypOU-34">
          <mxGeometry width="50" height="50" relative="1" as="geometry">
            <mxPoint x="770" y="920" as="sourcePoint" />
            <mxPoint x="820" y="870" as="targetPoint" />
            <Array as="points">
              <mxPoint x="420" y="980" />
            </Array>
          </mxGeometry>
        </mxCell>
        <mxCell id="ExrQfq8QPusbc2TG1vKU-21" value="" style="rounded=1;whiteSpace=wrap;html=1;dashed=1;dashPattern=8 8;fillColor=none;container=0;" vertex="1" parent="1">
          <mxGeometry x="700" y="920" width="80" height="320" as="geometry" />
        </mxCell>
        <mxCell id="poTXrmnGMnA__IKxypOU-38" value="e2e&lt;div&gt;testing&lt;/div&gt;" style="strokeWidth=2;html=1;shape=mxgraph.flowchart.start_2;whiteSpace=wrap;container=0;" vertex="1" parent="1">
          <mxGeometry x="720" y="960" width="40" height="40" as="geometry" />
        </mxCell>
        <mxCell id="poTXrmnGMnA__IKxypOU-44" value="auto" style="text;html=1;align=center;verticalAlign=middle;whiteSpace=wrap;rounded=0;container=0;" vertex="1" parent="1">
          <mxGeometry x="710" y="930" width="60" height="30" as="geometry" />
        </mxCell>
        <mxCell id="ExrQfq8QPusbc2TG1vKU-20" value="load&lt;div&gt;testing&lt;/div&gt;" style="strokeWidth=2;html=1;shape=mxgraph.flowchart.start_2;whiteSpace=wrap;container=0;" vertex="1" parent="1">
          <mxGeometry x="720" y="1040" width="40" height="40" as="geometry" />
        </mxCell>
        <mxCell id="ExrQfq8QPusbc2TG1vKU-22" value="it&lt;div&gt;testing&lt;/div&gt;" style="strokeWidth=2;html=1;shape=mxgraph.flowchart.start_2;whiteSpace=wrap;container=0;" vertex="1" parent="1">
          <mxGeometry x="720" y="1120" width="40" height="40" as="geometry" />
        </mxCell>
        <mxCell id="ExrQfq8QPusbc2TG1vKU-23" value="smoke&lt;div&gt;testing&lt;/div&gt;" style="strokeWidth=2;html=1;shape=mxgraph.flowchart.start_2;whiteSpace=wrap;container=0;" vertex="1" parent="1">
          <mxGeometry x="930" y="960" width="40" height="40" as="geometry" />
        </mxCell>
        <mxCell id="ExrQfq8QPusbc2TG1vKU-25" value="manual/auto" style="text;html=1;align=center;verticalAlign=middle;whiteSpace=wrap;rounded=0;container=0;" vertex="1" parent="1">
          <mxGeometry x="920" y="930" width="60" height="30" as="geometry" />
        </mxCell>
        <mxCell id="ExrQfq8QPusbc2TG1vKU-31" value="" style="edgeStyle=orthogonalEdgeStyle;rounded=0;orthogonalLoop=1;jettySize=auto;html=1;" edge="1" parent="1" source="ExrQfq8QPusbc2TG1vKU-27" target="poTXrmnGMnA__IKxypOU-13">
          <mxGeometry relative="1" as="geometry" />
        </mxCell>
        <mxCell id="ExrQfq8QPusbc2TG1vKU-27" value="Gateway API" style="rounded=0;whiteSpace=wrap;html=1;" vertex="1" parent="1">
          <mxGeometry x="520" y="240" width="120" height="60" as="geometry" />
        </mxCell>
        <mxCell id="ExrQfq8QPusbc2TG1vKU-29" value="" style="endArrow=classic;html=1;rounded=0;exitX=0.5;exitY=1;exitDx=0;exitDy=0;entryX=1;entryY=0.5;entryDx=0;entryDy=0;edgeStyle=orthogonalEdgeStyle;" edge="1" parent="1" source="poTXrmnGMnA__IKxypOU-9" target="ExrQfq8QPusbc2TG1vKU-27">
          <mxGeometry width="50" height="50" relative="1" as="geometry">
            <mxPoint x="740" y="250" as="sourcePoint" />
            <mxPoint x="790" y="200" as="targetPoint" />
          </mxGeometry>
        </mxCell>
        <mxCell id="ExrQfq8QPusbc2TG1vKU-30" value="" style="endArrow=classic;html=1;rounded=0;exitX=0.5;exitY=1;exitDx=0;exitDy=0;entryX=0;entryY=0.5;entryDx=0;entryDy=0;edgeStyle=orthogonalEdgeStyle;" edge="1" parent="1" source="poTXrmnGMnA__IKxypOU-3" target="ExrQfq8QPusbc2TG1vKU-27">
          <mxGeometry width="50" height="50" relative="1" as="geometry">
            <mxPoint x="740" y="250" as="sourcePoint" />
            <mxPoint x="790" y="200" as="targetPoint" />
          </mxGeometry>
        </mxCell>
        <mxCell id="ExrQfq8QPusbc2TG1vKU-32" value="" style="endArrow=classic;html=1;rounded=0;exitX=0.25;exitY=1;exitDx=0;exitDy=0;entryX=0.5;entryY=0;entryDx=0;entryDy=0;edgeStyle=orthogonalEdgeStyle;" edge="1" parent="1" source="ExrQfq8QPusbc2TG1vKU-27" target="poTXrmnGMnA__IKxypOU-11">
          <mxGeometry width="50" height="50" relative="1" as="geometry">
            <mxPoint x="740" y="250" as="sourcePoint" />
            <mxPoint x="790" y="200" as="targetPoint" />
          </mxGeometry>
        </mxCell>
        <mxCell id="ExrQfq8QPusbc2TG1vKU-33" value="" style="endArrow=classic;html=1;rounded=0;exitX=0.75;exitY=1;exitDx=0;exitDy=0;entryX=0.5;entryY=0;entryDx=0;entryDy=0;edgeStyle=orthogonalEdgeStyle;" edge="1" parent="1" source="ExrQfq8QPusbc2TG1vKU-27" target="poTXrmnGMnA__IKxypOU-7">
          <mxGeometry width="50" height="50" relative="1" as="geometry">
            <mxPoint x="740" y="250" as="sourcePoint" />
            <mxPoint x="790" y="200" as="targetPoint" />
          </mxGeometry>
        </mxCell>
      </root>
    </mxGraphModel>
  </diagram>
</mxfile>
